# xmcd
#
# Track frame offsets:
# 150
# 17196
# 34037
# 51079
# 67881
# 86786
# 101378
# 119881
# 137285
# 151110
# 168803
#
# Disc length: 2467 seconds
#
#
# Revision: 2
# Processed by: cddbd v1.5.2PL0 Copyright (c) Steve Scherf et al.
# Submitted via: FreeRIP 2.942 
#
DISCID=8309a10b
DTITLE=Jamice - Suave
DYEAR=2007
DGENRE=Other
TTITLE0=Il faut tout oublier
TTITLE1=Tudu pa bô
TTITLE2=Les saisons de l'amour
TTITLE3=Besa me
TTITLE4=Nha princesa
TTITLE5=Comment l'aimer
TTITLE6=Musica
TTITLE7=Je t'aimerai encore
TTITLE8=Rosa
TTITLE9=Promesa
TTITLE10=Mal
EXTD=
EXTT0=
EXTT1=
EXTT2=
EXTT3=
EXTT4=
EXTT5=
EXTT6=
EXTT7=
EXTT8=
EXTT9=
EXTT10=
PLAYORDER=
